<svg id="wave" style="transform:rotate(0deg); transition: 0.3s" viewBox="0 0 1440 260" version="1.1" xmlns="http://www.w3.org/2000/svg"><defs><linearGradient id="sw-gradient-0" x1="0" x2="0" y1="1" y2="0"><stop stop-color="rgba(255, 255, 255, 1)" offset="0%"></stop><stop stop-color="rgba(255, 255, 255, 1)" offset="100%"></stop></linearGradient></defs><path style="transform:translate(0, 0px); opacity:1" fill="url(#sw-gradient-0)" d="M0,234L48,203.7C96,173,192,113,288,104C384,95,480,139,576,160.3C672,182,768,182,864,173.3C960,165,1056,147,1152,125.7C1248,104,1344,78,1440,69.3C1536,61,1632,69,1728,60.7C1824,52,1920,26,2016,47.7C2112,69,2208,139,2304,164.7C2400,191,2496,173,2592,138.7C2688,104,2784,52,2880,30.3C2976,9,3072,17,3168,34.7C3264,52,3360,78,3456,91C3552,104,3648,104,3744,117C3840,130,3936,156,4032,151.7C4128,147,4224,113,4320,104C4416,95,4512,113,4608,99.7C4704,87,4800,43,4896,52C4992,61,5088,121,5184,121.3C5280,121,5376,61,5472,34.7C5568,9,5664,17,5760,43.3C5856,69,5952,113,6048,147.3C6144,182,6240,208,6336,212.3C6432,217,6528,199,6624,177.7C6720,156,6816,130,6864,117L6912,104L6912,260L6864,260C6816,260,6720,260,6624,260C6528,260,6432,260,6336,260C6240,260,6144,260,6048,260C5952,260,5856,260,5760,260C5664,260,5568,260,5472,260C5376,260,5280,260,5184,260C5088,260,4992,260,4896,260C4800,260,4704,260,4608,260C4512,260,4416,260,4320,260C4224,260,4128,260,4032,260C3936,260,3840,260,3744,260C3648,260,3552,260,3456,260C3360,260,3264,260,3168,260C3072,260,2976,260,2880,260C2784,260,2688,260,2592,260C2496,260,2400,260,2304,260C2208,260,2112,260,2016,260C1920,260,1824,260,1728,260C1632,260,1536,260,1440,260C1344,260,1248,260,1152,260C1056,260,960,260,864,260C768,260,672,260,576,260C480,260,384,260,288,260C192,260,96,260,48,260L0,260Z"></path></svg>