<svg id="wave" style="transform:rotate(0deg); transition: 0.3s" viewBox="0 0 1440 360" version="1.1" xmlns="http://www.w3.org/2000/svg"><defs><linearGradient id="sw-gradient-0" x1="0" x2="0" y1="1" y2="0"><stop stop-color="rgba(255, 255, 255, 1)" offset="0%"></stop><stop stop-color="rgba(255, 255, 255, 1)" offset="100%"></stop></linearGradient></defs><path style="transform:translate(0, 0px); opacity:1" fill="url(#sw-gradient-0)" d="M0,324L48,282C96,240,192,156,288,144C384,132,480,192,576,222C672,252,768,252,864,240C960,228,1056,204,1152,174C1248,144,1344,108,1440,96C1536,84,1632,96,1728,84C1824,72,1920,36,2016,66C2112,96,2208,192,2304,228C2400,264,2496,240,2592,192C2688,144,2784,72,2880,42C2976,12,3072,24,3168,48C3264,72,3360,108,3456,126C3552,144,3648,144,3744,162C3840,180,3936,216,4032,210C4128,204,4224,156,4320,144C4416,132,4512,156,4608,138C4704,120,4800,60,4896,72C4992,84,5088,168,5184,168C5280,168,5376,84,5472,48C5568,12,5664,24,5760,60C5856,96,5952,156,6048,204C6144,252,6240,288,6336,294C6432,300,6528,276,6624,246C6720,216,6816,180,6864,162L6912,144L6912,360L6864,360C6816,360,6720,360,6624,360C6528,360,6432,360,6336,360C6240,360,6144,360,6048,360C5952,360,5856,360,5760,360C5664,360,5568,360,5472,360C5376,360,5280,360,5184,360C5088,360,4992,360,4896,360C4800,360,4704,360,4608,360C4512,360,4416,360,4320,360C4224,360,4128,360,4032,360C3936,360,3840,360,3744,360C3648,360,3552,360,3456,360C3360,360,3264,360,3168,360C3072,360,2976,360,2880,360C2784,360,2688,360,2592,360C2496,360,2400,360,2304,360C2208,360,2112,360,2016,360C1920,360,1824,360,1728,360C1632,360,1536,360,1440,360C1344,360,1248,360,1152,360C1056,360,960,360,864,360C768,360,672,360,576,360C480,360,384,360,288,360C192,360,96,360,48,360L0,360Z"></path></svg>